<svg width="37" height="39" fill="none" xmlns="http://www.w3.org/2000/svg"><ellipse cx="18.377" cy="19.198" rx="18.26" ry="19.01" fill="url(#paint0_linear)"/><path d="M16.568 27.224c.01.007.024.007.033-.001L28.186 16.83c.594-.532.82-1.364.578-2.123l-.276-.867a1.526 1.526 0 00-.952-.977l-.547-.191c-.89-.31-1.878-.1-2.564.546l-7.841 7.386-4.923-4.293a1.025 1.025 0 00-1.012-.196l-1.668.582a1.03 1.03 0 00-.64.657l-.54 1.698c-.126.397 0 .83.319 1.098l8.448 7.073z" fill="#fff" stroke="#fff" stroke-width=".05" stroke-linecap="round" stroke-linejoin="round"/><defs><linearGradient id="paint0_linear" x1="14.725" y1=".188" x2="19.666" y2="38.159" gradientUnits="userSpaceOnUse"><stop stop-color="#FE3874"/><stop offset=".406" stop-color="#FC3672"/><stop offset="1" stop-color="#E61D57"/></linearGradient></defs></svg>