<svg width="50" height="49" fill="none" xmlns="http://www.w3.org/2000/svg"><path d="M49.038 24.454c0 13.292-10.769 24.066-24.053 24.066S.932 37.746.932 24.454C.932 11.163 11.7.388 24.985.388s24.053 10.775 24.053 24.066z" fill="#A9D5E9"/><path fill-rule="evenodd" clip-rule="evenodd" d="M37.696 16.012a2.787 2.787 0 01.29 3.93l-12.732 14.77a2.784 2.784 0 01-3.813.385l-9.548-7.385a2.788 2.788 0 01-.5-3.909 2.784 2.784 0 013.906-.5l7.46 5.77 11.009-12.77a2.784 2.784 0 013.928-.29z" fill="#fff"/></svg>